PathFileType	4	(X/Y/Z)	Patient4_TMGait_0pt6_01_right_11.trc.trc
DataRate	CameraRate	NumFrames	NumMarkers	Units	OrigDataRate	OrigDataStartFrame	OrigNumFrames
84.848484848485	84.848484848485	7	33	mm	84.848484848485	89	       141
Frame#	Time	Sacral			L.Shoulder			Chest			R.Shoulder			Neck			R.ASIS			L.ASIS			R.Thigh.Superior			R.Thigh.Lateral			R.Thigh.Inferior			R.Patella			L.Thigh.Superior			L.Thigh.Lateral			L.Thigh.Inferior			L.Patella			L.Shank.Superior			L.Shank.Lateral			L.Shank.Inferior			R.Shank.Superior			R.Shank.Lateral			R.Shank.Inferior			R.Heel			R.Midfoot.Superior			R.Midfoot.Lateral			R.Toe			L.Heel			L.Midfoot.Lateral			L.Midfoot.Superior			L.Toe			L.Elbow			L.Wrist			R.Elbow			R.Wrist			
		X1	Y1	Z1	X2	Y2	Z2	X3	Y3	Z3	X4	Y4	Z4	X5	Y5	Z5	X6	Y6	Z6	X7	Y7	Z7	X8	Y8	Z8	X9	Y9	Z9	X10	Y10	Z10	X11	Y11	Z11	X12	Y12	Z12	X13	Y13	Z13	X14	Y14	Z14	X15	Y15	Z15	X16	Y16	Z16	X17	Y17	Z17	X18	Y18	Z18	X19	Y19	Z19	X20	Y20	Z20	X21	Y21	Z21	X22	Y22	Z22	X23	Y23	Z23	X24	Y24	Z24	X25	Y25	Z25	X26	Y26	Z26	X27	Y27	Z27	X28	Y28	Z28	X29	Y29	Z29	X30	Y30	Z30	X31	Y31	Z31	X32	Y32	Z32	X33	Y33	Z33	

89	13.817142857143	681.803123917557	1002.880724964325	470.640984446880	821.431077165795	1437.449041238547	287.864346507750	942.648718924715	1370.875181444354	436.622819244198	872.298002019946	1436.502965080156	618.689828787105	813.955692860035	1492.783167495807	444.525541160012	914.959306629233	935.716213273589	569.679278561923	885.234002934599	965.002083190186	298.726040799642	942.274593222966	727.714882957322	550.481178233352	857.250017884548	622.970568422986	616.584447585759	934.610223661889	559.628572596764	542.654452432454	919.837357535330	451.274036302396	562.311381842498	952.664871660862	762.620571000311	329.351156040694	875.694603511455	636.760157403647	274.337275665885	969.890766315154	568.626787366709	335.881440417574	977.786145271772	498.611002713919	345.520123654977	955.696545519865	424.414627010779	339.879665113083	873.273486847538	302.705302890412	297.734196605694	936.496637629766	197.084365383620	366.124023999265	840.646524426439	386.561707798077	567.331464712685	720.143659985325	348.042208435746	629.378564964801	702.906703879334	240.623513969246	576.997625968097	497.696290360392	174.311373789818	553.157182619668	669.722624603310	123.536372480048	584.513359486925	561.214589932742	112.412146447244	619.481445759261	741.941248490950	30.096527797204	599.600825065513	820.188222073629	38.098064244411	417.936436372686	888.745768483854	35.906929285550	332.276394207507	973.736006885525	97.338407120716	353.131720513569	1100.038648583889	43.582531748348	316.572653437794	755.991519899889	1085.584139649483	181.755278575290	798.557583730272	828.524937315663	185.441127717574	916.911952791620	1085.271267197433	726.852140280746	1142.808983656767	965.488686095014	699.904555375965	
90	13.828928571429	681.912646591976	1003.485564122487	468.504698500389	823.287655797207	1438.294540317376	286.162175406795	943.532861214329	1371.476622284438	435.572028639882	872.162813829828	1436.893256678833	617.305871402706	814.787237371531	1493.488783021277	442.957299184976	914.975711829580	936.593370800428	568.174711276764	885.771886295583	965.563834089237	297.251284593450	947.276874137855	730.219761481183	549.116738026873	865.185033771667	623.932013435300	615.373493152212	943.951301983642	561.850764379875	541.092762156882	930.523190384648	452.339705406879	561.140383923577	951.229636403654	761.558457982474	326.508008295350	872.059788362368	636.686245181324	272.874823474146	965.759162607522	567.679468928800	333.926239458742	972.874005926456	497.854848974854	343.880782933734	950.510098243913	423.868843444943	338.543259382322	867.306582947559	302.501607481688	296.960223729812	930.098265028582	196.770734716375	365.595040526028	849.699611214343	388.426798852109	566.512584285165	728.217531440843	353.744554013735	629.006656993014	707.832998564825	246.580100381396	577.424709186870	501.280052833186	188.935423077077	554.713472823009	670.641819104403	128.951067734971	585.206924816586	561.847059794765	123.455919644670	620.633786722413	737.622892679981	29.453600078671	600.055986279646	813.092824225662	38.077981781083	417.894455604465	881.609923648539	35.816754605414	332.203915950307	966.708612231538	97.171399999652	353.021197686123	1092.993205375618	43.146013312915	316.463717326114	762.614915981296	1085.882678909418	177.830208768291	814.793520790314	830.386906901051	180.866570559865	909.428937526001	1084.597492710866	725.351836176685	1127.248445177546	949.440130350033	700.024458265860	
91	13.840714285714	681.843234454545	1003.965432140583	466.579727957534	824.990374400015	1438.957328651474	284.580633071469	944.291186181671	1371.908826365282	434.624105281279	871.965484214325	1437.108238249289	616.053146876141	815.569663895140	1494.088058194574	441.487203163146	914.865156003620	937.381143147123	566.840843591334	886.083366206290	965.982496224346	295.909565259848	952.092602672363	732.861047640639	547.468304936169	873.216248341605	625.055501307193	613.998909544547	953.087594039360	564.378927204496	539.081631731729	941.231940762920	453.760694908596	559.407880559460	949.679651930979	760.538786199040	323.998099122948	868.540939015852	636.662756616984	271.519785541166	961.650894792749	566.788005551349	332.187569896531	967.977630846447	497.119673794051	342.397359570300	945.354409648727	423.338420370683	337.323448350051	861.394049632916	302.330840996866	296.216210302615	923.717964205160	196.463236865821	365.093114432033	858.931071220002	390.511115957783	565.288835009041	736.709311727935	359.407343446518	628.352480660602	713.311877878009	252.601490787330	577.492205730943	505.831036443081	202.943852578592	555.931833365896	672.453527477573	134.770481950826	585.713951333004	563.594056570842	134.457742468877	621.594491888569	734.441580866294	29.377652245062	600.528988481688	805.996858891466	38.069510128586	417.838637279433	874.475089352550	35.735962712936	332.126150752992	959.680517012516	97.010965414682	352.910869755418	1085.940890747183	42.738979581304	316.356517452954	769.451369744834	1086.108918562804	173.802700384273	831.428585694012	832.594939678645	176.248382035126	901.941942489783	1083.912647854476	723.965865249708	1110.412680871996	933.620845947565	700.250190432885	
92	13.852500000000	681.608374219349	1004.370723556657	464.855937300522	826.494706036095	1439.481025900552	283.139927884404	944.908589376057	1372.213026174693	433.775008816743	871.722089524616	1437.191255578763	614.938505774513	816.298056522621	1494.615033727574	440.126114914619	914.625472625653	938.115579179247	565.662884414428	886.191704512525	966.302831625922	294.688294270729	956.619208329655	735.649549103724	545.508290194004	881.234139159396	626.376990237364	612.476238418519	961.917668735980	567.227588467833	536.677613311842	951.888507769585	455.560731215813	557.225010605315	948.069984038899	759.594550358717	321.841216552582	865.146502741280	636.697082861739	270.302963736357	957.583316265211	565.953006779433	330.687798482168	963.118718479823	496.413302730746	341.122345799348	940.243657391583	422.833717665377	336.258894634069	855.551906354433	302.207886737688	295.526974917628	917.358456037018	196.170932185935	364.641725373449	868.284878828921	392.814097826136	563.735111426403	745.521405788105	364.944779882883	627.421977719960	719.357709249257	258.556213254410	577.209913072775	511.289010008111	215.936004742578	556.738254736696	675.281243653673	140.808015178241	586.004680271558	566.519685947733	145.058818106176	622.294535997857	732.701921668128	30.021403304111	600.962058978190	798.901141890725	38.073343576503	417.768586030241	867.344175271634	35.669004214222	332.044474679022	952.648103674588	96.868785687275	352.803624450909	1078.880236432141	42.383085103415	316.250732728479	776.542869677231	1086.312076115566	169.728391740527	848.388699844049	835.210058924545	171.642777001917	894.452480530689	1083.261958351786	722.687851924898	1092.333960780095	918.284383840442	700.544742453515	
93	13.864285714286	681.228080254879	1004.752614350668	463.314019114202	827.774496918065	1439.915383843809	281.851499776660	945.376962833410	1372.436770990900	433.020762914555	871.438973185524	1437.191138291832	613.962039134451	816.967101797081	1495.103802825784	438.882094466456	914.255776924012	938.832701966906	564.629001110129	886.133698592757	966.571126975859	293.581731256220	960.785312376067	738.595251704186	543.258128748840	889.128868136548	627.925498609814	610.843109180098	970.370889987633	570.402370864498	533.982135347616	962.426603400986	457.758918986954	554.727613741096	946.437536087983	758.736207687055	320.033352934250	861.853258664788	636.788464606196	269.246263545957	953.545378167274	565.166835722016	329.436073065903	958.288871562548	495.738591108758	340.091335011722	935.166126744342	422.362487938630	335.375394149414	849.773729926772	302.139516431015	294.911542146046	911.012060858619	195.901007980250	364.258199115351	877.719726144035	395.331273243899	561.941903427969	754.569943963971	370.261294958869	626.237009405075	725.994800492789	264.298608070143	576.600429363705	517.593946065213	227.542057861693	557.080393609596	679.238562402903	146.839559616602	586.044258359801	570.674858881502	154.901414868084	622.675331415475	732.700481352419	31.450635286457	601.293733157284	791.804037493870	38.089131603077	417.685762428605	860.217388092374	35.617528830923	331.960649803929	945.607331840627	96.751191453763	352.702168436893	1071.808918726932	42.089987738484	316.146700996849	783.906087060960	1086.554637628448	165.665872302184	865.594964198278	838.297733049295	167.105442634054	886.950975351513	1082.699710810071	721.506135710483	1073.077894638138	903.683008270643	700.875403647558	
94	13.876071428571	680.726445367976	1005.154854166308	461.929218837804	828.826904659140	1440.308454422513	280.717683162511	945.697393064917	1372.625830570039	432.359087204757	871.114220652677	1437.155812867230	613.117975040272	817.573159028484	1495.583877885253	437.760911088590	913.756798066876	939.561948646432	563.731570745801	885.955194603127	966.829899719091	292.589719000540	964.554317631369	741.705153050826	540.786298900575	896.796479794563	629.719830759757	609.154333817064	978.407045693676	573.899167402152	531.128653403735	972.788100809715	460.367281072127	552.060687370116	944.797535699136	757.957513263497	318.556787337300	858.622343703814	636.931498184690	268.359443082770	949.507390857129	564.418297494546	328.432397273040	953.458633522862	495.094930172708	339.321703650586	930.093060571764	421.929701766162	334.684693771500	844.037960184520	302.125583850774	294.381419299795	904.664943850554	195.658462187580	363.952337658941	887.205237428797	398.052232324423	560.004427362554	763.786667985298	375.254468777221	624.833221789676	733.251985945054	269.676462718585	575.696193082344	524.695726878478	237.447307266802	556.932090403829	684.421765835132	152.620275400480	585.801365865986	576.095031882203	163.652268364046	622.694029777324	734.693073312012	33.614453221466	601.465678019112	784.702333952531	38.115676700877	417.592777890720	853.093345358526	35.580957459466	331.876431133662	938.554795077897	96.659888701109	352.608510272095	1064.724884167659	41.862068928932	316.045372966017	791.527760826882	1086.901795859232	161.673399495232	882.962839822048	841.919683907679	162.688213550578	879.419013084279	1082.281120771500	720.406864482763	1052.748078060969	890.055468020689	701.219864242172	
95	13.887857142857	680.129031716900	1005.607967223836	460.674424924929	829.673526683125	1440.700562575830	279.732759647620	945.880801861124	1372.817449477572	431.790438746788	870.740417371218	1437.126718209622	612.396272670317	818.115992804589	1496.077205495740	436.765885426817	913.129927074256	940.322389864074	562.965718731966	885.706974218900	967.113977564732	291.714527066773	967.921879131018	744.980099549719	538.199313876958	904.145036654054	631.765984569108	607.475734462115	986.011507682196	577.702954144547	528.266446809726	982.921556681499	463.388323856254	549.366315213303	943.144762967514	757.241927959915	317.389407314849	855.412479777216	637.118386310405	267.639696842493	945.430722551882	563.696049336532	327.670757715722	948.587292780368	494.479683483712	338.813411904678	924.987715349342	421.537534068811	334.185195634735	838.315202236183	302.160576149587	293.940414870051	898.301049448731	195.445926695532	363.726535380351	896.717595136340	400.958724054747	558.014625722849	773.118717910271	379.819404364022	623.257743559436	741.156991414434	274.539997734432	574.537360631320	532.560514867046	245.407051040099	556.296095665471	690.904391549542	157.902126841487	585.255866481468	582.799565999512	171.020596193533	622.327456919973	738.869033518516	36.341783019052	601.427441607216	777.592180659460	38.150978115060	417.492839728576	845.970116151901	35.557212498845	331.793326695385	931.488341877528	96.593127731232	352.523745678884	1057.627127788159	41.694366864566	315.948197436368	799.364850950314	1087.411581882453	157.805688346682	900.402544092700	846.126652030286	158.436688497437	871.832452459507	1082.056206936639	719.378515137808	1031.487920354583	877.614594769304	701.569863952871	
